<?xml version="1.0" encoding="UTF-8"?>
<svg xmlns="http://www.w3.org/2000/svg" viewBox="0 0 48 47.053"><g fill="#009edb" data-name="Layer 2"><path d="M29.798 6.815a4 4 0 1 0-2.548 5.05 4 4 0 0 0 2.548-5.05M20.735 27.566l3.931-7.79a4.853 4.853 0 0 0-2.146-6.519l-2.556-1.29a2 2 0 0 0-.427-.153 14.18 14.18 0 0 0-18.302 6.509 2.068 2.068 0 1 0 3.681 1.884 10.05 10.05 0 0 1 10.197-5.375L.228 44.018a2.087 2.087 0 1 0 3.719 1.896l9.042-17.729 4.475 2.26a10.14 10.14 0 0 1 4.152 13.56 2.087 2.087 0 1 0 3.704 1.922 14.32 14.32 0 0 0-4.585-18.361M47.545 22.403l-6.948-6.948a1.552 1.552 0 1 0-2.195 2.195l4.35 4.35H29.5a1.5 1.5 0 0 0 0 3h13.252l-4.35 4.35a1.552 1.552 0 1 0 2.195 2.195l6.948-6.947a1.55 1.55 0 0 0 0-2.195" style="fill: #009edb;"/><path d="M33.5 28a1.5 1.5 0 0 0-1.5 1.5v5a1.5 1.5 0 0 0 3 0v-5a1.5 1.5 0 0 0-1.5-1.5M33.5 19a1.5 1.5 0 0 0 1.5-1.5v-5a1.5 1.5 0 1 0-3 0v5a1.5 1.5 0 0 0 1.5 1.5M33.5 8A1.5 1.5 0 0 0 35 6.5v-5a1.5 1.5 0 1 0-3 0v5A1.5 1.5 0 0 0 33.5 8M33.5 39a1.5 1.5 0 0 0-1.5 1.5v5a1.5 1.5 0 1 0 3 0v-5a1.5 1.5 0 0 0-1.5-1.5" style="fill: #009edb;"/></g></svg>
